<svg id="Layer_3" data-name="Layer 3" xmlns="http://www.w3.org/2000/svg" viewBox="0 0 120 120"><defs><style>.cls-1{fill:#e4af18;}.cls-2{fill:#fcc62d;}.cls-3{fill:#ffd949;}.cls-4{fill:#f19920;}</style></defs><path class="cls-1" d="M102.33,83.14c0,11.74-19.86,21.26-44.35,21.26S13.63,94.88,13.63,83.14V71.43c0-11.74,19.85-21.26,44.35-21.26s44.35,9.52,44.35,21.26Z"/><ellipse class="cls-2" cx="57.98" cy="70.27" rx="44.35" ry="21.26"/><ellipse class="cls-3" cx="57.98" cy="70.27" rx="37.95" ry="17.42"/><path class="cls-4" d="M46.08,85.31s-17.76-24-17.33-23.69,18.78,8.8,18.78,8.8,7.51-15.3,7.8-14.87S65.4,70.87,65.4,70.87L83.62,60.59,67.32,85.31Z"/><path class="cls-1" d="M97,66.43C97,78.17,77.1,87.69,52.61,87.69S8.26,78.17,8.26,66.43V54.72C8.26,43,28.12,33.46,52.61,33.46S97,43,97,54.72Z"/><ellipse class="cls-2" cx="52.61" cy="53.57" rx="44.35" ry="21.26"/><ellipse class="cls-3" cx="52.61" cy="53.57" rx="37.95" ry="17.42"/><path class="cls-4" d="M40.72,68.6S23,44.62,23.38,44.91s18.78,8.81,18.78,8.81S49.67,38.41,50,38.84L60,54.16,78.25,43.88,62,68.6Z"/><path class="cls-1" d="M111.74,49.73C111.74,61.47,91.88,71,67.39,71S23,61.47,23,49.73V38C23,26.28,42.9,16.76,67.39,16.76S111.74,26.28,111.74,38Z"/><ellipse class="cls-2" cx="67.39" cy="36.86" rx="44.35" ry="21.26"/><ellipse class="cls-3" cx="67.39" cy="36.86" rx="37.95" ry="17.42"/><path class="cls-4" d="M55.5,51.89s-17.77-24-17.34-23.69S56.94,37,56.94,37s7.51-15.31,7.8-14.87S74.81,37.45,74.81,37.45L93,27.18,76.73,51.89Z"/></svg>