<svg id="Layer_3" data-name="Layer 3" xmlns="http://www.w3.org/2000/svg" viewBox="0 0 349.12 143.65"><defs><style>.cls-1,.cls-2,.cls-3{stroke:#000;}.cls-1,.cls-2,.cls-3,.cls-4,.cls-5,.cls-6{stroke-miterlimit:10;}.cls-1{opacity:0.22;}.cls-2{fill:#00870a;}.cls-3{fill:#00d370;}.cls-4{fill:none;stroke:#ff0;}.cls-4,.cls-5{stroke-width:2px;}.cls-5{fill:#fbb03b;stroke:lime;}.cls-6{fill:#ff0;stroke:#d9e021;}</style></defs><path class="cls-1" d="M327.55,135.14a16.09,16.09,0,0,0,16.09-16l.21-82.26c0-20-11-31-24-31H29.27c-13,0-24,11-24,31l.21,82.26a16.08,16.08,0,0,0,16.08,16Z"/><path class="cls-2" d="M343.65,133.47l.2-96.62c0-20-9-25-24-25H29.27c-15,0-24,5-24,25l.2,96.62Z"/><path class="cls-3" d="M319.85,19.85c13,0,24,3,24,23l-.21,95H5.48l-.21-95c0-20,11-23,24-23Z"/><path class="cls-4" d="M133.4,61.58a10.25,10.25,0,1,1-10.25,10.25"/><polyline class="cls-4" points="132.67 65.52 132.67 72.56 139 72.56"/><circle class="cls-5" cx="132.96" cy="103.76" r="12.25"/><path class="cls-6" d="M126.61,101.54c1.79,3.7,2.91,7.13,2.47,9.93h7.72c-.71-2.73,1.13-6.26,3.39-9.93l-5.2,5-1.79-9.1-2.13,9.1Z"/></svg>