<svg id="Layer_3" data-name="Layer 3" xmlns="http://www.w3.org/2000/svg" xmlns:xlink="http://www.w3.org/1999/xlink" viewBox="0 0 190 126"><defs><style>.cls-1{opacity:0.24;}.cls-2,.cls-7,.cls-8{stroke:#000;}.cls-2,.cls-3,.cls-4,.cls-5,.cls-6,.cls-7,.cls-8{stroke-miterlimit:10;}.cls-2{fill:url(#linear-gradient);}.cls-3,.cls-4{fill:none;}.cls-3{stroke:aqua;stroke-width:3px;}.cls-4{stroke:#ff0;}.cls-4,.cls-5{stroke-width:2px;}.cls-5,.cls-6{fill:#ff0;}.cls-5{stroke:lime;}.cls-6{stroke:#d9e021;}.cls-7{opacity:0.32;}.cls-8{fill:#3aff23;}.cls-9{fill:#2ec91c;}</style><linearGradient id="linear-gradient" x1="348.68" y1="269.34" x2="89.31" y2="62.01" gradientUnits="userSpaceOnUse"><stop offset="0" stop-color="#ae4302"/><stop offset="0.32" stop-color="#ad6c01"/><stop offset="1" stop-color="#a9cd00"/></linearGradient></defs><path class="cls-1" d="M184.59,47C178,44,177.73,40.15,184,35.31L182.78,10,6.18,6.82V27.07l6.33,16.18L6.18,35.32V72.07l4,9.19-4,.43v41.56H188.32ZM87.75,20.3A5,5,0,0,1,83,15.15a4.77,4.77,0,1,1,9.5,0A5,5,0,0,1,87.75,20.3Z"/><path class="cls-2" d="M180.09,42.89c-6.64-2.93-6.86-6.81-.57-11.65L178.28,5.92,1.68,2.75V23L8,39.18,1.68,31.25V68l4,9.19-4,.43v41.56l182.14,0ZM87.21,20.17A4.75,4.75,0,1,1,92,15.42,4.75,4.75,0,0,1,87.21,20.17Z"/><path class="cls-3" d="M102,13.54c-.84,2.76-3.31,11.19-3,16.82a4.35,4.35,0,0,0,1.18,3.15c1.85,1.64,5.21.38,5.79.16"/><path class="cls-3" d="M111,23.63c-.35.61-2.2,4-.79,7.5.21.51,1.4,3.44,3.72,3.69,2,.21,3.64-1.8,4.6-3a12.22,12.22,0,0,0,2.5-6.88"/><path class="cls-3" d="M129.73,14.88Q128,25,126.29,35"/><path class="cls-4" d="M31.93,51.75A10.25,10.25,0,1,1,21.68,62"/><polyline class="cls-4" points="31.2 55.69 31.2 62.73 37.53 62.73"/><circle class="cls-5" cx="32.43" cy="96" r="12.25"/><path class="cls-6" d="M26.08,93.78c1.79,3.7,2.91,7.13,2.47,9.93h7.72c-.71-2.73,1.13-6.26,3.4-9.93l-5.21,5-1.79-9.1-2.13,9.1Z"/><circle class="cls-7" cx="89.68" cy="13.75" r="7"/><polyline class="cls-8" points="84.83 13.84 88 9.09 92.73 11.46 87.21 17.8"/><ellipse class="cls-8" cx="91.38" cy="9.65" rx="4.2" ry="7.3" transform="translate(12.02 55.96) rotate(-36.3)"/><path class="cls-9" d="M87.6,10.27c3.58,3,8.47,4.29,7.58-1,1.68,2.57,1,5,0,6C93.18,16.25,90,14.36,87.6,10.27Z"/></svg>