<svg id="Layer_3" data-name="Layer 3" xmlns="http://www.w3.org/2000/svg" xmlns:xlink="http://www.w3.org/1999/xlink" viewBox="0 0 86 128"><defs><style>.cls-1,.cls-3{stroke:#7e0000;stroke-miterlimit:10;}.cls-1{fill:url(#linear-gradient);}.cls-2{opacity:0.12;}.cls-3,.cls-7{fill:#9a2d00;}.cls-4{fill:#7e2d00;}.cls-5{fill:#7e0000;}.cls-6{fill:url(#radial-gradient);}.cls-8{fill:url(#radial-gradient-2);}.cls-9{fill:#662d00;}.cls-10{fill:#e52d00;}.cls-11{fill:#f42d00;opacity:0.44;}</style><linearGradient id="linear-gradient" x1="94.47" y1="139.56" x2="48.8" y2="83.32" gradientUnits="userSpaceOnUse"><stop offset="0.01" stop-color="#d47c00" stop-opacity="0"/><stop offset="1" stop-color="#d7ff1c"/></linearGradient><radialGradient id="radial-gradient" cx="100.03" cy="140.53" r="172.57" gradientUnits="userSpaceOnUse"><stop offset="0.01" stop-color="red" stop-opacity="0"/><stop offset="1" stop-color="#3e0000"/></radialGradient><radialGradient id="radial-gradient-2" cx="5.52" cy="7.75" r="132.19" xlink:href="#radial-gradient"/></defs><polygon class="cls-1" points="45.33 82.02 58.65 124.27 66.13 114.84 77.17 118.09 66.13 75.84 45.33 82.02"/><path class="cls-2" d="M50,96.8c1.74.6,6.27-6.89,5.57-7.79a23.9,23.9,0,0,0,13.62-1.48L66,79.14,50,84.46,47.44,90Z"/><path class="cls-3" d="M54.1,85.27c1.48-.16,10.06,4.3,16.57-7.8,3.12-5.79,8-9.15,7.8-12,1.77-.78-3.46-6.78-1.3-12,2.3-5.58,6.36-8.09,5.2-11.05-4.2-10.77-8.11-10.94-8.12-17.22,0-6.94-6.11-.3-7.15-5.2-1.31-6.17-5.45-9.58-7.47-9.75C49.27,9.34,52,5.33,44.68,4,32.47,1.84,35,12.56,26.15,13.12s-11.66,4.65-13,6.83C10.51,24.24,9.3,21.84,6,36.85,2.39,53.3,4.21,51,4.05,56c-.29,9.28-1.42-.46.33,14.3C5.84,82.7,14,77.38,17.05,80.4,21.54,84.84,17,87,27.45,91.12c8.39,3.29,12.34,2.91,18.2,3.25C51.73,94.72,50.5,89.28,54.1,85.27Z"/><path class="cls-4" d="M40.45,84a33.79,33.79,0,0,1,0-67.57,33.79,33.79,0,0,1,0,67.57Z"/><path class="cls-5" d="M40.45,16.89a33.29,33.29,0,0,1,0,66.57,33.29,33.29,0,0,1,0-66.57m0-1a34.29,34.29,0,1,0,34,34.28A34.12,34.12,0,0,0,40.45,15.89Z"/><circle class="cls-6" cx="40.45" cy="50.17" r="33.64"/><circle class="cls-7" cx="40.45" cy="50.17" r="29.89"/><path class="cls-5" d="M40.45,20.79A29.39,29.39,0,1,1,11.07,50.17,29.42,29.42,0,0,1,40.45,20.79m0-1A30.39,30.39,0,1,0,70.84,50.17,30.38,30.38,0,0,0,40.45,19.79Z"/><circle class="cls-8" cx="40.45" cy="50.17" r="30.39"/><path class="cls-9" d="M26.55,46l9.51,7.78a3.08,3.08,0,0,0,4.22-.29l16-17.29a3.09,3.09,0,0,1,4.45-.08L62.62,38a3.08,3.08,0,0,1,.17,4.18l-22.09,26a3.11,3.11,0,0,1-4.43.29L20.21,53.92a3.09,3.09,0,0,1-.44-4.09l2.32-3.22A3.08,3.08,0,0,1,26.55,46Z"/><path class="cls-10" d="M38.24,66.34a2.27,2.27,0,0,1-1.53-.59L20.28,50.89a2.3,2.3,0,0,1-.27-3.1l3.34-4.29a2.25,2.25,0,0,1,1.8-.88,2.31,2.31,0,0,1,1.41.48l9,7a3.22,3.22,0,0,0,2,.7A3.26,3.26,0,0,0,40.1,49.7L54.75,32.65A2.28,2.28,0,0,1,58,32.43l4.12,3.63a2.3,2.3,0,0,1,.23,3.2L40,65.54A2.27,2.27,0,0,1,38.24,66.34Z"/><path class="cls-5" d="M56.49,32.36a1.78,1.78,0,0,1,1.18.44l4.12,3.64A1.8,1.8,0,0,1,62,38.93L39.6,65.21a1.79,1.79,0,0,1-2.56.17L20.62,50.51a1.78,1.78,0,0,1-.22-2.41l3.34-4.29a1.78,1.78,0,0,1,2.51-.31l9,7a3.84,3.84,0,0,0,2.33.8A3.78,3.78,0,0,0,40.48,50L55.13,33a1.78,1.78,0,0,1,1.36-.62m0-1a2.77,2.77,0,0,0-2.12,1L39.72,49.38a2.78,2.78,0,0,1-3.82.38l-9-7a2.73,2.73,0,0,0-1.71-.59A2.79,2.79,0,0,0,23,43.19l-3.33,4.29a2.79,2.79,0,0,0,.32,3.78L36.37,66.12a2.82,2.82,0,0,0,1.87.72,2.76,2.76,0,0,0,2.12-1L62.73,39.58a2.78,2.78,0,0,0-.28-3.89l-4.12-3.64a2.76,2.76,0,0,0-1.84-.69Z"/><path class="cls-11" d="M74.09,35.71c1.34,1.13,3.42,12.85,2.27,12.67,2.51-1.11,3.64-2.87,3.58-5.2C79.3,40.21,77.08,37.81,74.09,35.71Z"/><path class="cls-11" d="M35.09,14.59C37,12,51.6,14.33,53.93,16.86L64.5,24.17c.31,1-2.32-8.33-3.25-9.68-.57-.82-11.47-.58-14.14-2.83C44.28,9.27,39.64,5.49,37,9.39S35.09,14.59,35.09,14.59Z"/><path class="cls-11" d="M58.44,80.56c.7.65,7.52-4.23,8.82-7.15s5.2-9.1,5.53-10.73,2.92,0,2.27,1.95-1.66,5.9-2.94,6.69S68.56,75.68,67.59,78s-3.66,6.17-4.92,5.52-4.53.33-5.49,0,1-2.27,1-2.27Z"/><path class="cls-11" d="M25.32,83.55c1,.91,12.37,3.12,15.13,2.5s6.39-.79,8-1.19,1.32,4.85,0,6.12-10-.12-11-.56-7.18-3.72-9.15-2.89S25.32,83.55,25.32,83.55Z"/><path class="cls-11" d="M7.47,65.89c.32.69,4.55,8.17,6.82,9.14s-4.23.33-5,.82-2.59-4.27-2.68-5A41.26,41.26,0,0,1,7.47,65.89Z"/><path class="cls-11" d="M10.67,31.78c.05-.29,1.2-7.63,2.25-7.54s2.67-1.85,3.65-3.48,1.18-4.22,3.68-3.9,2.49,1.95,2.49,1.95-5.69,3.85-6.58,5.5S10.67,31.78,10.67,31.78Z"/></svg>