<svg id="Layer_3" data-name="Layer 3" xmlns="http://www.w3.org/2000/svg" viewBox="0 0 84 84"><defs><style>.cls-1{fill:#aaffba;}.cls-1,.cls-2,.cls-3,.cls-4{stroke:#000;stroke-miterlimit:10;}.cls-2{fill:#7a6e00;}.cls-3{fill:#eff1ee;}.cls-4{fill:#fcb500;}</style></defs><path class="cls-1" d="M36,42.87l-3,10c6.13,5.11,12.14,5.35,18,0l-3-10Z"/><circle class="cls-1" cx="42" cy="31.99" r="13.16"/><path class="cls-2" d="M41.83,31.93H57.29l-.89-7.52c3.44-5.77,4.86-11.06,4.7-16-2.82,3.76-5.21,8.45-9.4,9.4a14.84,14.84,0,0,0-9.4-3.76h-.6a14.84,14.84,0,0,0-9.4,3.76c-4.19-.95-6.58-5.64-9.4-9.4-.16,4.92,1.26,10.21,4.7,16l-.89,7.52H42.17"/><path class="cls-3" d="M27.6,24.41c-3.44-5.77-4.86-11.06-4.7-16,2.82,3.76,5.21,8.45,9.4,9.4"/><path class="cls-3" d="M56.4,24.41c3.44-5.77,4.86-11.06,4.7-16-2.82,3.76-5.21,8.45-9.4,9.4"/><path class="cls-4" d="M49.57,48.87,64.75,54,59.13,75.57,43.6,75H40.4l-15.53.54L19.25,54,34,48.87C35.14,57.07,48.57,57.07,49.57,48.87Z"/></svg>