<svg id="Layer_3" data-name="Layer 3" xmlns="http://www.w3.org/2000/svg" viewBox="0 0 84 84"><defs><style>.cls-1{fill:#aaffba;}.cls-1,.cls-2,.cls-3,.cls-4{stroke:#000;stroke-miterlimit:10;}.cls-2{fill:#c500f6;}.cls-3{fill:#007192;}.cls-4{fill:#e9fff6;}</style></defs><polygon class="cls-1" points="36.73 51.72 41.23 78.1 42.37 78.1 49.82 52.65 48.75 45.37 42.17 41.44 36.73 45.79 36.73 51.72"/><polyline class="cls-2" points="37.13 46.53 37.13 51.83 20.95 57.11 26.57 78.73 42.1 78.19"/><polyline class="cls-2" points="46.87 46.53 46.87 51.83 63.05 57.11 57.43 78.73 41.9 78.19"/><circle class="cls-1" cx="42.17" cy="35.03" r="13.16"/><polygon class="cls-3" points="41.23 5.27 27.13 35.13 57.5 35.03 41.23 5.27"/><path class="cls-4" d="M42.21,63.26c-8.08,0-10.72-14.68-10.83-20.48,2.93,1.35,10.45,1.35,10.45,1.35h.78s7.52,0,10.45-1.35c-.11,5.8-2.75,20.49-10.83,20.48"/></svg>