<svg id="Layer_3" data-name="Layer 3" xmlns="http://www.w3.org/2000/svg" xmlns:xlink="http://www.w3.org/1999/xlink" viewBox="0 0 270 300"><defs><style>.cls-1{fill:#834331;}.cls-1,.cls-10,.cls-13,.cls-15,.cls-16,.cls-18,.cls-20,.cls-7{stroke:#000;}.cls-1,.cls-10,.cls-12,.cls-13,.cls-14,.cls-15,.cls-16,.cls-18,.cls-20,.cls-27,.cls-7{stroke-miterlimit:10;}.cls-2{fill:#d6bd42;}.cls-3{fill:#d67742;}.cls-4,.cls-9{fill:#fff;}.cls-4{opacity:0.19;}.cls-5{fill:#8e3c26;}.cls-6{fill:url(#radial-gradient);}.cls-7{fill:#dde6e9;}.cls-8{fill:#afb6b3;}.cls-10{fill:#d08640;}.cls-11{fill:#903e26;}.cls-12,.cls-13,.cls-27{fill:none;}.cls-12{stroke:#b96325;}.cls-14{fill:#bbb7b8;stroke:aqua;}.cls-15{fill:#514644;}.cls-16{fill:#004e29;}.cls-17{fill:#a5a1a5;}.cls-18{fill:#f8c964;}.cls-19{fill:#e1b35d;}.cls-20{fill:red;}.cls-21{fill:url(#linear-gradient);}.cls-22{opacity:0.22;fill:url(#linear-gradient-2);}.cls-23{fill:#e4af18;}.cls-24{fill:#fcc62d;}.cls-25{fill:#ffd949;}.cls-26{fill:#f19920;}.cls-27{stroke:#fff;stroke-width:2px;}</style><radialGradient id="radial-gradient" cx="80.6" cy="144.89" r="69.08" gradientUnits="userSpaceOnUse"><stop offset="0.55" stop-color="#d48a4d"/><stop offset="0.99" stop-color="#c46731"/></radialGradient><linearGradient id="linear-gradient" x1="152.99" y1="154.14" x2="167.49" y2="182.99" gradientUnits="userSpaceOnUse"><stop offset="0" stop-color="#612c00" stop-opacity="0"/><stop offset="1" stop-color="#4d4000"/></linearGradient><linearGradient id="linear-gradient-2" x1="148.99" y1="149.17" x2="163.34" y2="173.08" gradientUnits="userSpaceOnUse"><stop offset="0" stop-color="#612c00" stop-opacity="0"/><stop offset="0.99" stop-color="#fff"/></linearGradient></defs><rect class="cls-1" x="24.31" y="20.73" width="221.37" height="267.83" rx="20.38"/><rect class="cls-2" x="29.91" y="25.64" width="210.18" height="256.15" rx="20.38"/><rect class="cls-3" x="30.84" y="26.77" width="208.32" height="253.88" rx="20.38"/><path class="cls-4" d="M49.88,46.77,36.64,61.52v64l13.24,12.58h61.41s12.08-11.09,12.08-13V61.52L107.1,46.77Z"/><path class="cls-5" d="M51,48.51,38.3,62.7v61.57L51,136.37H110.1s11.61-10.67,11.61-12.53V62.7L106.06,48.51Z"/><path class="cls-6" d="M53.89,56.88l-11,12.22.93,51.16,11,10.42h50.86s10-9.19,10-10.79-.93-50.79-.93-50.79L101.27,56.88Z"/><path class="cls-7" d="M253.81,274.88c.93,4.65-13.95,21.39-13.95,21.39H213.07l-4.24-10.69,4.06-13.49h12.28l6.17-15.27,13.17-3.33,9.34,5.75Z"/><circle class="cls-7" cx="233.86" cy="271.63" r="4.18"/><path class="cls-8" d="M238,292.59s-7-9-8.37-9.41-18.2,1.05-18.2,1.05l2.86,9.72Z"/><polygon class="cls-8" points="237.58 280.93 240.37 291.16 250.73 275.81 250.73 261.4 244.39 257.1 244.39 271.63 237.58 280.93"/><path class="cls-9" d="M243.2,257.1c-1,1.51,0,13.6,0,13.6l-5.58,8.45,1.86,12-8.37-8.37-19.6,1.44,18.67-3.3,3.72-.93,7.44-9.3Z"/><path class="cls-7" d="M17.3,274c-.93,4.65,14,21.39,14,21.39H58l4.24-10.69-4.06-13.49H45.94l-6.17-15.27L26.6,252.56l-9.34,5.75Z"/><circle class="cls-7" cx="37.25" cy="270.7" r="4.18"/><path class="cls-8" d="M33.07,291.66s7-9,8.37-9.41,18.2,1.05,18.2,1.05L56.78,293Z"/><polygon class="cls-8" points="33.53 280 30.74 290.23 20.38 274.88 20.38 260.47 26.72 256.17 26.72 270.7 33.53 280"/><path class="cls-9" d="M27.91,256.17c1,1.51,0,13.6,0,13.6l5.58,8.45-1.86,12L40,281.86l19.6,1.44L41,280l-3.72-.93-7.44-9.3Z"/><polygon class="cls-10" points="141.67 43.02 209.86 43.02 243.56 53 263.89 31.52 242.63 3.73 141.67 3.73 128.33 3.73 27.37 3.73 6.11 31.52 28.3 53 60.14 43.02 128.33 43.02 141.67 43.02"/><polygon class="cls-11" points="62.79 41.41 62.79 22.72 46.42 18.68 60.14 24.41 60.14 41.41 62.79 41.41"/><polygon class="cls-11" points="209.86 42.45 207.54 42.45 207.21 22.72 223.15 18.92 209.86 24.41 209.86 42.45"/><path class="cls-12" d="M29.14,16.07c68-10.48,108.18-7,127.54-2.42A164.42,164.42,0,0,0,185,18.49c24.25,1.94,45.9-1.61,60.22-4.84"/><path class="cls-12" d="M67.33,18.25c4.76-1,36.38-10.52,59.54-4.13s30.64,10,38.42,11.8"/><path class="cls-12" d="M17.77,31.16c2.95-2.59,10.92-10.66,18-7.43s16.83,4,19,2.82"/><path class="cls-12" d="M25.15,38.25c2.66-7.26,20-7.9,26.57-5.65"/><path class="cls-12" d="M223.15,29.1c3,.28,21.91-3.64,26.65-6.12S256,23,256,23"/><path class="cls-12" d="M78.08,21.88c7.3,1.85,26.13,2.77,32.66,1.1s9.62-4,13.83-4.06"/><path class="cls-12" d="M86.54,19.28c5-2,16.66-.87,18.82-1"/><path class="cls-12" d="M178,9.19c4.84,2.44,26.19,6.6,31.9,4.93s24.9-4.95,27.26-4.93"/><path class="cls-12" d="M229.86,36.71c.82-1.62,2.66-4.11,9.69-4.11h19.09"/><path class="cls-12" d="M118.8,31.16c5.57.65,12.08.13,18.83-7.43,0,0,10.43-3.23,13.19,2.82"/><polygon class="cls-11" points="209.86 42.45 243.41 52.44 263.89 31.52 258.54 26.55 242.52 42.5 210.75 35.19 59.25 35.19 29.34 42.5 11.46 26.55 6.11 31.52 28.45 52.44 60.14 42.45 209.86 42.45"/><polyline class="cls-13" points="209.86 43.02 209.86 24.41 224.03 19.28"/><polyline class="cls-13" points="60.14 43.02 60.14 24.41 45.97 19.28"/><rect class="cls-5" x="31.77" y="210.91" width="206.46" height="1.86"/><rect class="cls-4" x="31.77" y="212.77" width="206.46" height="0.93"/><polyline class="cls-14" points="60.13 177.71 78.75 162.48 80.24 153.8 71.56 155.28 56.33 173.91"/><polygon class="cls-15" points="49.27 187.03 47.05 184.81 55.76 175.46 58.58 178.28 49.27 187.03"/><ellipse class="cls-16" cx="47.14" cy="186.9" rx="1.88" ry="2.64" transform="translate(-118.35 88.07) rotate(-45)"/><polyline class="cls-17" points="79.67 154.34 78.35 162.26 59.43 177.76 58.09 176.53"/><polygon class="cls-18" points="53.02 173.31 51.46 173 51.76 170.53 54.13 170.13 54.54 171.79 62.33 179.58 63.99 179.99 63.59 182.36 61.12 182.66 60.81 181.1 53.02 173.31"/><polygon class="cls-19" points="53.15 173.1 51.59 172.79 51.98 170.78 52.21 172.24 53.56 172.68 61.36 180.47 61.86 181.82 63.38 182.1 61.25 182.45 60.94 180.89 53.15 173.1"/><path class="cls-20" d="M158.35,160.84s.8-6.72,9-6.72,6.71,11.78,6.71,11.78c0,5.64-9,22.46-15.74,23h-.23c-6.79-.52-15.88-17.34-15.88-23,0,0-1.52-11.78,6.71-11.78s9,6.72,9,6.72Z"/><path class="cls-21" d="M158.35,160.84s.8-6.72,9-6.72,6.71,11.78,6.71,11.78c0,5.64-9,22.46-15.74,23h-.23c-6.79-.52-15.88-17.34-15.88-23,0,0-1.52-11.78,6.71-11.78s9,6.72,9,6.72Z"/><path class="cls-22" d="M158.49,161s.8-6.73,9-6.73c4.48,0,6.07,3.49,6.59,6.68.43,2.66-26.7,19.07-29.75,12.09a20,20,0,0,1-2-7s-1.52-11.79,6.71-11.79,9,6.73,9,6.73Z"/><path class="cls-23" d="M80,252.26c0,4.45-7.52,8.05-16.8,8.05s-16.81-3.6-16.81-8.05v-4.44c0-4.45,7.53-8.06,16.81-8.06S80,243.37,80,247.82Z"/><ellipse class="cls-24" cx="63.23" cy="247.38" rx="16.81" ry="8.06"/><ellipse class="cls-25" cx="63.23" cy="247.38" rx="14.38" ry="6.6"/><path class="cls-26" d="M58.72,253.08s-6.73-9.09-6.57-9,7.12,3.34,7.12,3.34,2.84-5.8,2.95-5.64L66,247.61l6.9-3.9-6.17,9.37Z"/><path class="cls-23" d="M78,245.93c0,4.45-7.52,8-16.81,8s-16.8-3.6-16.8-8v-4.44c0-4.45,7.52-8.06,16.8-8.06S78,237,78,241.49Z"/><ellipse class="cls-24" cx="61.19" cy="241.05" rx="16.81" ry="8.06"/><ellipse class="cls-25" cx="61.19" cy="241.05" rx="14.38" ry="6.6"/><path class="cls-26" d="M56.69,246.75s-6.74-9.09-6.57-9,7.11,3.34,7.11,3.34,2.85-5.8,3-5.64L64,241.28l6.9-3.9-6.18,9.37Z"/><path class="cls-23" d="M83.6,239.6c0,4.45-7.52,8.05-16.81,8.05S50,244.05,50,239.6v-4.44c0-4.45,7.52-8.06,16.8-8.06s16.81,3.61,16.81,8.06Z"/><ellipse class="cls-24" cx="66.79" cy="234.72" rx="16.81" ry="8.06"/><ellipse class="cls-25" cx="66.79" cy="234.72" rx="14.38" ry="6.6"/><path class="cls-26" d="M62.29,240.42s-6.74-9.09-6.57-9,7.11,3.34,7.11,3.34,2.85-5.8,3-5.64L69.61,235l6.9-3.9-6.18,9.37Z"/><rect class="cls-27" x="131.88" y="120.18" width="100" height="15"/></svg>