<svg id="Layer_3" data-name="Layer 3" xmlns="http://www.w3.org/2000/svg" xmlns:xlink="http://www.w3.org/1999/xlink" viewBox="0 0 1600 900"><defs><style>.cls-1,.cls-11,.cls-2,.cls-3,.cls-4,.cls-5,.cls-6,.cls-7,.cls-8,.cls-9{stroke:#000;stroke-miterlimit:10;}.cls-1{fill:url(#linear-gradient);}.cls-2{opacity:0.25;}.cls-3{fill:url(#linear-gradient-2);}.cls-4{fill:url(#linear-gradient-3);}.cls-5{fill:url(#linear-gradient-4);}.cls-6{opacity:0.29;}.cls-7{fill:#b08048;}.cls-8{fill:url(#linear-gradient-5);}.cls-9{fill:url(#linear-gradient-6);}.cls-10{font-size:60px;font-family:SegoePrint, Segoe Print;}.cls-11{fill:none;}</style><linearGradient id="linear-gradient" x1="210.43" y1="237.15" x2="1441.7" y2="610.04" gradientUnits="userSpaceOnUse"><stop offset="0.01" stop-color="#d77b3c"/><stop offset="1" stop-color="#785730"/></linearGradient><linearGradient id="linear-gradient-2" x1="1480.63" y1="766.97" x2="149.54" y2="78.57" gradientUnits="userSpaceOnUse"><stop offset="0.01" stop-color="#d77b3c"/><stop offset="0.46" stop-color="#ae6c37"/><stop offset="1" stop-color="#785730"/></linearGradient><linearGradient id="linear-gradient-3" x1="288.14" y1="746.09" x2="382.14" y2="746.09" xlink:href="#linear-gradient-2"/><linearGradient id="linear-gradient-4" x1="666.14" y1="746.09" x2="760.14" y2="746.09" xlink:href="#linear-gradient-2"/><linearGradient id="linear-gradient-5" x1="284.96" y1="155.97" x2="750.18" y2="674.98" gradientUnits="userSpaceOnUse"><stop offset="0.01" stop-color="#f9cf82"/><stop offset="1" stop-color="#e4a55d"/></linearGradient><linearGradient id="linear-gradient-6" x1="283.96" y1="155.97" x2="749.18" y2="674.98" xlink:href="#linear-gradient-5"/></defs><rect class="cls-1" x="156.39" y="76.84" width="1286.5" height="677.5" rx="25.98"/><path class="cls-2" d="M1424.51,70.85h-1249A25.52,25.52,0,0,0,149.8,96.21V733.74a25.52,25.52,0,0,0,25.69,25.35h1249a25.52,25.52,0,0,0,25.69-25.35V96.21A25.52,25.52,0,0,0,1424.51,70.85Zm11.6,649.67a25.52,25.52,0,0,1-25.68,25.35H190.22a25.52,25.52,0,0,1-25.68-25.35V110.11a25.52,25.52,0,0,1,25.68-25.35H1410.43a25.52,25.52,0,0,1,25.68,25.35Z"/><path class="cls-3" d="M1431.84,62.32H168.16a26,26,0,0,0-26,26V741.64a26,26,0,0,0,26,26H1431.84a26,26,0,0,0,26-26V88.31A26,26,0,0,0,1431.84,62.32Zm11.74,665.77a26,26,0,0,1-26,26H183.06a26,26,0,0,1-26-26V102.56a26,26,0,0,1,26-26H1417.59a26,26,0,0,1,26,26Z"/><rect class="cls-4" x="288.14" y="738.59" width="94" height="15"/><rect class="cls-5" x="666.14" y="738.59" width="94" height="15"/><rect class="cls-6" x="187.14" y="95.59" width="697" height="637" rx="32.84"/><rect class="cls-7" x="178.14" y="101.59" width="697" height="637" rx="32.84"/><rect class="cls-8" x="178.14" y="112.59" width="697" height="626" rx="32.84"/><rect class="cls-9" x="177.14" y="112.59" width="697" height="626" rx="32.84"/><text class="cls-10" transform="translate(282.87 171.02)">Доска заданий</text><path class="cls-11" d="M251.92,216.09c122.72-32,339.72-44,535.72-29"/></svg>