<svg id="Layer_3" data-name="Layer 3" xmlns="http://www.w3.org/2000/svg" viewBox="0 0 142.27 41.64"><defs><style>.cls-1{fill:#4bab40;}.cls-1,.cls-2,.cls-3{stroke:#1b1464;stroke-miterlimit:10;}.cls-2{fill:#70ff5e;}.cls-3{fill:#00e60c;}.cls-4{font-size:24px;font-family:MVBoli, MV Boli;}</style></defs><path class="cls-1" d="M1.52,18.46v5.21h0A16.48,16.48,0,0,0,18,40.15H124.41a16.48,16.48,0,0,0,16.48-16.48h0V18.46"/><path class="cls-2" d="M18,34.94H124.41a16.48,16.48,0,0,0,16.48-16.48h0A16.48,16.48,0,0,0,124.41,2H18"/><rect class="cls-2" x="1.52" y="1.98" width="32.96" height="32.96" rx="16.48"/><rect class="cls-3" x="13.6" y="6.46" width="9.21" height="24" rx="4.61" transform="translate(36.66 0.25) rotate(90)"/><rect class="cls-3" x="13.4" y="6.46" width="9.21" height="24" rx="4.61"/><text class="cls-4" transform="translate(37.48 27.46)">ASSIGN</text></svg>