<svg id="Layer_3" data-name="Layer 3" xmlns="http://www.w3.org/2000/svg" viewBox="0 0 36 36"><defs><style>.cls-1{fill:#bbb7b8;stroke:aqua;}.cls-1,.cls-2,.cls-3,.cls-5{stroke-miterlimit:10;}.cls-2{fill:#514644;}.cls-2,.cls-3,.cls-5{stroke:#000;}.cls-3{fill:#004e29;}.cls-4{fill:#a5a1a5;}.cls-5{fill:#f8c964;}.cls-6{fill:#e1b35d;}</style></defs><polyline class="cls-1" points="15.96 23.26 31.72 10.37 32.97 3.03 25.63 4.28 12.74 20.04"/><polygon class="cls-2" points="6.77 31.14 4.89 29.26 12.26 21.35 14.65 23.74 6.77 31.14"/><ellipse class="cls-3" cx="4.97" cy="31.03" rx="1.59" ry="2.23" transform="translate(-20.49 12.6) rotate(-45)"/><polyline class="cls-4" points="32.49 3.48 31.38 10.18 15.37 23.3 14.23 22.26"/><polygon class="cls-5" points="9.94 19.53 8.62 19.27 8.88 17.18 10.88 16.84 11.23 18.24 17.82 24.84 19.23 25.19 18.89 27.19 16.8 27.45 16.54 26.13 9.94 19.53"/><polygon class="cls-6" points="10.05 19.35 8.73 19.09 9.06 17.39 9.26 18.63 10.4 19 17 25.59 17.42 26.74 18.71 26.97 16.91 27.27 16.65 25.95 10.05 19.35"/><polyline class="cls-1" points="20.04 23.26 4.28 10.37 3.03 3.03 10.37 4.28 23.26 20.04"/><polygon class="cls-2" points="29.23 31.14 31.11 29.26 23.74 21.35 21.35 23.74 29.23 31.14"/><ellipse class="cls-3" cx="31.03" cy="31.03" rx="2.23" ry="1.59" transform="translate(-12.85 31.03) rotate(-45)"/><polyline class="cls-4" points="3.51 3.48 4.62 10.18 20.63 23.3 21.77 22.26"/><polygon class="cls-5" points="26.06 19.53 27.38 19.27 27.12 17.18 25.12 16.84 24.77 18.24 18.18 24.84 16.77 25.19 17.11 27.19 19.2 27.45 19.46 26.13 26.06 19.53"/><polygon class="cls-6" points="25.95 19.35 27.27 19.09 26.94 17.39 26.74 18.63 25.59 19 19 25.59 18.58 26.74 17.29 26.97 19.09 27.27 19.35 25.95 25.95 19.35"/></svg>