<svg id="Layer_3" data-name="Layer 3" xmlns="http://www.w3.org/2000/svg" xmlns:xlink="http://www.w3.org/1999/xlink" viewBox="0 0 1520 855"><defs><style>.cls-1,.cls-11,.cls-2,.cls-3,.cls-4,.cls-5,.cls-6,.cls-7,.cls-8,.cls-9{stroke:#000;stroke-miterlimit:10;}.cls-1{fill:url(#linear-gradient);}.cls-2{opacity:0.25;}.cls-3{fill:url(#linear-gradient-2);}.cls-4{fill:url(#linear-gradient-3);}.cls-5{fill:url(#linear-gradient-4);}.cls-6{opacity:0.29;}.cls-7{fill:#b08048;}.cls-8{fill:url(#linear-gradient-5);}.cls-9{fill:url(#linear-gradient-6);}.cls-10{font-size:60px;font-family:SegoePrint, Segoe Print;}.cls-11{fill:none;stroke-width:3px;}</style><linearGradient id="linear-gradient" x1="170.43" y1="249.68" x2="1401.7" y2="622.57" gradientUnits="userSpaceOnUse"><stop offset="0.01" stop-color="#d77b3c"/><stop offset="1" stop-color="#785730"/></linearGradient><linearGradient id="linear-gradient-2" x1="1440.63" y1="779.5" x2="109.54" y2="91.1" gradientUnits="userSpaceOnUse"><stop offset="0.01" stop-color="#d77b3c"/><stop offset="0.46" stop-color="#ae6c37"/><stop offset="1" stop-color="#785730"/></linearGradient><linearGradient id="linear-gradient-3" x1="248.14" y1="758.62" x2="342.14" y2="758.62" xlink:href="#linear-gradient-2"/><linearGradient id="linear-gradient-4" x1="626.14" y1="758.62" x2="720.14" y2="758.62" xlink:href="#linear-gradient-2"/><linearGradient id="linear-gradient-5" x1="244.96" y1="168.5" x2="710.18" y2="687.51" gradientUnits="userSpaceOnUse"><stop offset="0.01" stop-color="#f9cf82"/><stop offset="1" stop-color="#e4a55d"/></linearGradient><linearGradient id="linear-gradient-6" x1="243.96" y1="168.5" x2="709.18" y2="687.51" xlink:href="#linear-gradient-5"/></defs><rect class="cls-1" x="116.39" y="89.37" width="1286.5" height="677.5" rx="25.98"/><path class="cls-2" d="M1384.51,83.38h-1249a25.52,25.52,0,0,0-25.69,25.36V746.26a25.52,25.52,0,0,0,25.69,25.36h1249a25.52,25.52,0,0,0,25.69-25.36V108.74A25.52,25.52,0,0,0,1384.51,83.38ZM1396.11,733a25.52,25.52,0,0,1-25.68,25.36H150.22A25.52,25.52,0,0,1,124.54,733V122.64a25.53,25.53,0,0,1,25.68-25.36H1370.43a25.53,25.53,0,0,1,25.68,25.36Z"/><path class="cls-3" d="M1391.84,74.85H128.16a26,26,0,0,0-26,26V754.16a26,26,0,0,0,26,26H1391.84a26,26,0,0,0,26-26V100.84A26,26,0,0,0,1391.84,74.85Zm11.74,665.77a26,26,0,0,1-26,26H143.06a26,26,0,0,1-26-26V115.09a26,26,0,0,1,26-26H1377.59a26,26,0,0,1,26,26Z"/><rect class="cls-4" x="248.14" y="751.12" width="94" height="15"/><rect class="cls-5" x="626.14" y="751.12" width="94" height="15"/><rect class="cls-6" x="147.14" y="108.12" width="697" height="637" rx="32.84"/><rect class="cls-7" x="138.14" y="114.12" width="697" height="637" rx="32.84"/><rect class="cls-8" x="138.14" y="125.12" width="697" height="626" rx="32.84"/><rect class="cls-9" x="137.14" y="125.12" width="697" height="626" rx="32.84"/><text class="cls-10" transform="translate(242.87 183.54)">Доска заданий</text><path class="cls-11" d="M211.92,228.62c122.72-32,339.72-44,535.72-29"/></svg>