<svg id="Layer_3" data-name="Layer 3" xmlns="http://www.w3.org/2000/svg" viewBox="0 0 84 84"><defs><style>.cls-1{fill:#d9dcff;}.cls-1,.cls-2,.cls-3,.cls-4,.cls-5{stroke:#000;stroke-miterlimit:10;}.cls-2{fill:#aaffba;}.cls-3{fill:#c500f6;}.cls-4{fill:#007192;}.cls-5{fill:#e9fff6;}</style></defs><rect class="cls-1" x="1" y="3" width="82" height="78" rx="10.35"/><polygon class="cls-2" points="36.93 53.47 41.43 79.85 42.57 79.85 50.02 54.4 48.95 47.13 42.37 43.19 36.93 47.54 36.93 53.47"/><polyline class="cls-3" points="37.33 48.28 37.33 53.58 21.15 58.86 26.77 80.48 42.3 79.94"/><polyline class="cls-3" points="47.07 48.28 47.07 53.58 63.25 58.86 57.63 80.48 42.1 79.94"/><circle class="cls-2" cx="42.37" cy="36.79" r="13.16"/><polygon class="cls-4" points="41.43 7.03 27.33 36.89 57.7 36.78 41.43 7.03"/><path class="cls-5" d="M42.41,65c-8.08,0-10.72-14.68-10.83-20.48C34.51,45.89,42,45.89,42,45.89h.78s7.52,0,10.45-1.36C53.15,50.33,50.51,65,42.43,65"/></svg>