<svg id="Layer_3" data-name="Layer 3" xmlns="http://www.w3.org/2000/svg" viewBox="0 0 260 38"><defs><style>.cls-1{fill:#3500fc;}.cls-1,.cls-2{stroke:#000;stroke-miterlimit:10;}.cls-2{fill:#95ff63;}</style></defs><rect class="cls-1" x="0.75" y="1.5" width="258.5" height="35" rx="7.75"/><path class="cls-2" d="M211.69,22.79l4.25,6.6h-8.51l-5.32-6.6H193.6l6.38,6.6h-9.57L181.92,23l-55.34-.19c5.32,3,10.64,1.8,11.7,5.68H112.75c0-2.08-6.38-5.08-15.78-5.38H85.09c19.15,5.7,18.09,9.9,6.39,8.1L31.91,20.39q-4.68-1.08,0-2.17L91.48,7.42c11.7-1.8,12.76,2.4-6.39,8.1H97c9.4-.3,15.78-3.3,15.78-5.38h25.53c-1.06,3.88-6.38,2.68-11.7,5.68l55.34-.19,8.49-6.41H200l-6.38,6.6h8.51l5.32-6.6h8.51l-4.25,6.6A5.9,5.9,0,0,0,211.69,22.79Z"/></svg>