<svg id="Layer_3" data-name="Layer 3" xmlns="http://www.w3.org/2000/svg" viewBox="0 0 84 84"><defs><style>.cls-1{fill:#aaffba;}.cls-1,.cls-2,.cls-3,.cls-4{stroke:#000;stroke-miterlimit:10;}.cls-2{fill:#7a6e00;}.cls-3{fill:#eff1ee;}.cls-4{fill:#fcb500;}</style></defs><path class="cls-1" d="M36,46,33,56c6.13,5.11,12.14,5.34,18,0L48,46Z"/><circle class="cls-1" cx="42" cy="35.14" r="13.16"/><path class="cls-2" d="M41.83,35.08H57.29l-.89-7.51c3.44-5.77,4.86-11.06,4.7-16C58.28,15.35,55.89,20,51.7,21a14.79,14.79,0,0,0-9.4-3.76h-.6A14.79,14.79,0,0,0,32.3,21c-4.19-1-6.58-5.64-9.4-9.4-.16,4.92,1.26,10.21,4.7,16l-.89,7.51H42.17"/><path class="cls-3" d="M27.6,27.57c-3.44-5.77-4.86-11.06-4.7-16,2.82,3.76,5.21,8.44,9.4,9.4"/><path class="cls-3" d="M56.4,27.57c3.44-5.77,4.86-11.06,4.7-16C58.28,15.35,55.89,20,51.7,21"/><path class="cls-4" d="M49.57,52l15.18,5.08L59.13,78.73,43.6,78.19H40.4l-15.53.54L19.25,57.11,34,52C35.14,60.23,48.57,60.23,49.57,52Z"/></svg>