<svg id="Layer_3" data-name="Layer 3" xmlns="http://www.w3.org/2000/svg" viewBox="0 0 36 36"><defs><style>.cls-1{fill:#bbb7b8;stroke:aqua;}.cls-1,.cls-2,.cls-3,.cls-5{stroke-miterlimit:10;}.cls-2{fill:#514644;}.cls-2,.cls-3,.cls-5{stroke:#000;}.cls-3{fill:#004e29;}.cls-4{fill:#a5a1a5;}.cls-5{fill:#f8c964;}.cls-6{fill:#e1b35d;}</style></defs><polyline class="cls-1" points="15.96 23.26 31.72 10.37 32.97 3.03 25.63 4.28 12.74 20.04"/><polygon class="cls-2" points="6.77 31.14 4.89 29.26 12.26 21.35 14.65 23.74 6.77 31.14"/><ellipse class="cls-3" cx="4.97" cy="31.03" rx="1.59" ry="2.23" transform="translate(-20.49 12.6) rotate(-45)"/><polyline class="cls-4" points="32.49 3.48 31.38 10.18 15.37 23.3 14.23 22.26"/><polygon class="cls-5" points="9.94 19.53 8.62 19.27 8.88 17.18 10.88 16.84 11.23 18.24 17.82 24.84 19.23 25.19 18.89 27.19 16.8 27.45 16.54 26.13 9.94 19.53"/><polygon class="cls-6" points="10.05 19.35 8.73 19.09 9.06 17.39 9.26 18.63 10.4 19 17 25.59 17.42 26.74 18.71 26.97 16.91 27.27 16.65 25.95 10.05 19.35"/></svg>