<svg id="Layer_3" data-name="Layer 3" xmlns="http://www.w3.org/2000/svg" xmlns:xlink="http://www.w3.org/1999/xlink" viewBox="0 0 700 600"><defs><style>.cls-1{opacity:0.24;}.cls-2,.cls-3,.cls-4{stroke:#000;stroke-miterlimit:10;}.cls-2{fill:url(#linear-gradient);}.cls-3{opacity:0.32;}.cls-4{fill:#3aff23;}.cls-5{fill:#2ec91c;}</style><linearGradient id="linear-gradient" x1="809.39" y1="743.57" x2="346.16" y2="311.57" gradientUnits="userSpaceOnUse"><stop offset="0" stop-color="#ae4302"/><stop offset="0.32" stop-color="#ad6c01"/><stop offset="1" stop-color="#a9cd00"/></linearGradient></defs><path class="cls-1" d="M670.65,178.6c-23.78-10.48-24.55-24.37-2-41.7l-4.43-90.63L32.1,34.93v72.48l22.67,57.9L32.1,136.92V268.46l14.17,32.91L32.1,302.89V579.64l651.91,0ZM324,83.17c-9.39,0-17-8.25-17-18.43s7.62-18.42,17-18.42,17,8.25,17,18.42S333.43,83.17,324,83.17Z"/><path class="cls-2" d="M654.54,164c-23.78-10.49-24.55-24.37-2-41.7L648.06,31.7,16,20.36V92.84l22.68,57.9L16,122.35V253.89l14.17,32.9L16,288.31V565.07L667.9,565ZM322.21,74.84c-7.73,0-12.48-2.82-13.31-9.13-1.22-9.31,3.81-17,13.21-17S337.17,58.65,334,67.47C332.06,72.65,325.54,74.84,322.21,74.84Z"/><circle class="cls-3" cx="333.95" cy="51.73" r="25.05"/><path class="cls-4" d="M314.23,53.11,327.94,35l15.62,13.26L325,69.61C315.41,69.61,308.1,61.64,314.23,53.11Z"/><ellipse class="cls-4" cx="340.03" cy="37.04" rx="15.04" ry="26.14" transform="translate(44.06 208.48) rotate(-36.3)"/><path class="cls-5" d="M326.52,39.29c12.8,10.65,30.3,15.34,27.12-3.67,6,9.21,3.58,17.9,0,21.48C346.48,60.68,335.25,53.92,326.52,39.29Z"/></svg>