<svg id="Layer_3" data-name="Layer 3" xmlns="http://www.w3.org/2000/svg" viewBox="0 0 84 84"><defs><style>.cls-1{fill:#e9ff82;}.cls-1,.cls-2,.cls-3,.cls-4,.cls-5{stroke:#000;stroke-miterlimit:10;}.cls-2{fill:#aaffba;}.cls-3{fill:#7a6e00;}.cls-4{fill:#eff1ee;}.cls-5{fill:#fcb500;}</style></defs><rect class="cls-1" x="1" y="3" width="82" height="78" rx="10.35"/><path class="cls-2" d="M36.06,47.67l-3,10c6.13,5.11,12.14,5.34,18,0l-3-10Z"/><circle class="cls-2" cx="42.06" cy="36.79" r="13.16"/><path class="cls-3" d="M41.9,36.73H57.36l-.89-7.52c3.44-5.77,4.86-11.06,4.7-16-2.82,3.76-5.22,8.45-9.4,9.4a14.89,14.89,0,0,0-9.4-3.76h-.61a14.86,14.86,0,0,0-9.4,3.76c-4.18-.95-6.58-5.64-9.4-9.4-.16,4.92,1.26,10.21,4.7,16l-.89,7.52H42.23"/><path class="cls-4" d="M27.66,29.21c-3.44-5.77-4.86-11.06-4.7-16,2.82,3.76,5.22,8.45,9.4,9.4"/><path class="cls-4" d="M56.47,29.21c3.44-5.77,4.86-11.06,4.7-16-2.82,3.76-5.22,8.45-9.4,9.4"/><path class="cls-5" d="M49.63,53.67l15.18,5.08L59.19,80.37l-15.53-.54h-3.2l-15.52.54L19.31,58.75l14.76-5.08C35.2,61.87,48.63,61.87,49.63,53.67Z"/></svg>