<svg id="Layer_3" data-name="Layer 3" xmlns="http://www.w3.org/2000/svg" xmlns:xlink="http://www.w3.org/1999/xlink" viewBox="0 0 700 600"><defs><style>.cls-1{opacity:0.24;}.cls-2,.cls-3,.cls-4{stroke:#000;stroke-miterlimit:10;}.cls-2{stroke-width:3px;fill:url(#linear-gradient);}.cls-3{opacity:0.32;}.cls-4{fill:#3aff23;}.cls-5{fill:#2ec91c;}</style><linearGradient id="linear-gradient" x1="720.3" y1="499.19" x2="-28.27" y2="112.04" gradientUnits="userSpaceOnUse"><stop offset="0.01" stop-color="#3fc569"/><stop offset="0.96" stop-color="#26b54d"/><stop offset="1" stop-color="#785730"/></linearGradient></defs><path class="cls-1" d="M670.65,178.6c-23.78-10.48-24.55-24.37-2-41.7l-4.43-90.63L32.1,34.93v72.48l22.67,57.9L32.1,136.92V268.46l14.17,32.91L32.1,302.89V579.64l651.91,0ZM324,83.17c-9.39,0-17-8.25-17-18.43s7.62-18.42,17-18.42,17,8.25,17,18.42S333.43,83.17,324,83.17Z"/><path class="cls-2" d="M654.54,164c-23.78-10.49-24.55-24.37-2-41.7L648.06,31.7,16,20.36V92.84l22.68,57.9L16,122.35V253.89l14.17,32.9L16,288.31V565.07L667.9,565ZM322.11,82.72a17,17,0,1,1,17-17A17,17,0,0,1,322.11,82.72Z"/><circle class="cls-3" cx="330.95" cy="59.73" r="25.05"/><polyline class="cls-4" points="313.6 60.04 324.94 43.03 341.86 51.54 322.11 74.21"/><ellipse class="cls-4" cx="337.03" cy="45.04" rx="15.04" ry="26.14" transform="translate(38.74 208.26) rotate(-36.3)"/><path class="cls-5" d="M323.52,47.29c12.8,10.65,30.3,15.34,27.12-3.67,6,9.21,3.58,17.9,0,21.48C343.48,68.68,332.25,61.92,323.52,47.29Z"/></svg>