<svg id="Layer_3" data-name="Layer 3" xmlns="http://www.w3.org/2000/svg" xmlns:xlink="http://www.w3.org/1999/xlink" viewBox="0 0 76.34 139.52"><defs><style>.cls-1{stroke:#000;stroke-miterlimit:10;fill:url(#linear-gradient);}.cls-2{fill:#e52d00;}</style><linearGradient id="linear-gradient" x1="42.92" y1="157.6" x2="32.95" y2="7.96" gradientUnits="userSpaceOnUse"><stop offset="0.01" stop-color="#198600"/><stop offset="1" stop-color="#d7ff1c"/></linearGradient></defs><path class="cls-1" d="M1.23.84A833.37,833.37,0,0,1,5.79,137.43a.68.68,0,0,0,1.14.52l34.18-32.43,31.46,29.37a.68.68,0,0,0,1.14-.48c1.18-46.34-1.33-91-8.36-133.57"/><path class="cls-2" d="M11,132.85c0-48.21-1.4-93.3-5.39-132.48L9.91.59c4.18,38.7,5.61,81.89,5.42,127.74Z"/><path class="cls-2" d="M69.62,129.83S70.2,41.7,61.2.8H56.75c8.9,42.7,8.16,86.81,7.46,124.05Z"/></svg>