<svg id="Layer_3" data-name="Layer 3" xmlns="http://www.w3.org/2000/svg" xmlns:xlink="http://www.w3.org/1999/xlink" viewBox="0 0 266.01 293.2"><defs><style>.cls-1{fill:#834331;}.cls-1,.cls-10,.cls-13,.cls-15,.cls-16,.cls-18,.cls-20,.cls-7{stroke:#000;}.cls-1,.cls-10,.cls-12,.cls-13,.cls-14,.cls-15,.cls-16,.cls-18,.cls-20,.cls-7{stroke-miterlimit:10;}.cls-2{fill:#d6bd42;}.cls-3{fill:#d67742;}.cls-4,.cls-9{fill:#fff;}.cls-4{opacity:0.19;}.cls-5{fill:#8e3c26;}.cls-6{fill:url(#radial-gradient);}.cls-7{fill:#dde6e9;}.cls-8{fill:#afb6b3;}.cls-10{fill:#d08640;}.cls-11{fill:#903e26;}.cls-12,.cls-13{fill:none;}.cls-12{stroke:#b96325;}.cls-14{fill:#bbb7b8;stroke:aqua;}.cls-15{fill:#514644;}.cls-16{fill:#004e29;}.cls-17{fill:#a5a1a5;}.cls-18{fill:#f8c964;}.cls-19{fill:#e1b35d;}.cls-20{fill:red;}.cls-21{fill:url(#linear-gradient);}.cls-22{opacity:0.22;fill:url(#linear-gradient-2);}</style><radialGradient id="radial-gradient" cx="78.61" cy="138.8" r="69.08" gradientUnits="userSpaceOnUse"><stop offset="0.55" stop-color="#d48a4d"/><stop offset="0.99" stop-color="#c46731"/></radialGradient><linearGradient id="linear-gradient" x1="150.99" y1="222.31" x2="165.49" y2="251.15" gradientUnits="userSpaceOnUse"><stop offset="0" stop-color="#612c00" stop-opacity="0"/><stop offset="1" stop-color="#4d4000"/></linearGradient><linearGradient id="linear-gradient-2" x1="146.99" y1="217.33" x2="161.34" y2="241.24" gradientUnits="userSpaceOnUse"><stop offset="0" stop-color="#612c00" stop-opacity="0"/><stop offset="0.99" stop-color="#fff"/></linearGradient></defs><rect class="cls-1" x="22.32" y="14.64" width="221.37" height="267.83" rx="20.38"/><rect class="cls-2" x="27.92" y="19.55" width="210.18" height="256.15" rx="20.38"/><rect class="cls-3" x="28.85" y="20.69" width="208.32" height="253.88" rx="20.38"/><path class="cls-4" d="M47.89,40.68,34.64,55.43v64L47.89,132h61.4s12.08-11.09,12.08-13V55.43L105.1,40.68Z"/><path class="cls-5" d="M49,42.43,36.3,56.61v61.57L49,130.28H108.1s11.62-10.66,11.62-12.52V56.61L104.06,42.43Z"/><path class="cls-6" d="M51.89,50.8,40.92,63l.93,51.16,11,10.42h50.86s10-9.18,10-10.79S112.75,63,112.75,63L99.27,50.8Z"/><path class="cls-7" d="M251.81,268.8c.93,4.65-13.95,21.39-13.95,21.39H211.07l-4.23-10.7,4-13.48h12.28l6.18-15.27,13.16-3.33,9.34,5.75Z"/><circle class="cls-7" cx="231.86" cy="265.54" r="4.18"/><path class="cls-8" d="M236,286.51s-7-9-8.37-9.42-18.2,1.06-18.2,1.06l2.86,9.71Z"/><polygon class="cls-8" points="235.58 274.84 238.37 285.07 248.73 269.73 248.73 255.31 242.39 251.01 242.39 265.54 235.58 274.84"/><path class="cls-9" d="M241.2,251c-1,1.51,0,13.6,0,13.6l-5.58,8.45,1.86,12-8.37-8.37-19.6,1.45,18.67-3.31,3.72-.93,7.44-9.3Z"/><path class="cls-7" d="M15.3,267.87c-.93,4.65,14,21.39,14,21.39H56l4.24-10.7-4.06-13.48H43.94l-6.17-15.27L24.6,246.48l-9.34,5.75Z"/><circle class="cls-7" cx="35.26" cy="264.61" r="4.18"/><path class="cls-8" d="M31.07,285.58s7-9,8.37-9.42,18.2,1.06,18.2,1.06l-2.85,9.71Z"/><polygon class="cls-8" points="31.54 273.91 28.75 284.14 18.38 268.8 18.38 254.38 24.73 250.08 24.73 264.61 31.54 273.91"/><path class="cls-9" d="M25.91,250.08c1,1.51.05,13.6.05,13.6l5.58,8.45-1.86,12,8.37-8.37,19.59,1.45L39,273.91,35.26,273l-7.44-9.3Z"/><polygon class="cls-10" points="139.67 34.48 207.87 34.48 241.57 52.3 263.67 29.64 240.64 3.02 139.67 3.02 126.34 3.02 25.37 3.02 2.34 29.64 26.3 52.3 58.14 34.48 126.34 34.48 139.67 34.48"/><polygon class="cls-11" points="60.8 32.88 60.8 22.01 44.85 17.54 58.14 23.7 60.8 32.88"/><polygon class="cls-11" points="205.21 32.88 205.21 22.01 221.15 17.54 207.87 23.7 205.21 32.88"/><path class="cls-12" d="M27.14,15.36c68-10.48,108.18-7,127.54-2.42A164.62,164.62,0,0,0,183,17.78c24.26,1.95,45.9-1.6,60.23-4.84"/><path class="cls-12" d="M65.33,17.54c4.77-1,36.38-10.52,59.55-4.13s30.64,10,38.41,11.8"/><path class="cls-12" d="M15.78,30.45c3-2.59,10.92-10.65,18-7.43s16.83,4,19,2.83"/><path class="cls-12" d="M23.15,37.54c2.66-7.26,20-7.9,26.58-5.64"/><path class="cls-12" d="M221.15,28.39c3.06.28,21.91-3.64,26.65-6.12s6.15,0,6.15,0"/><path class="cls-12" d="M76.09,21.17c7.29,1.85,26.13,2.77,32.65,1.1s9.62-4,13.83-4.06"/><path class="cls-12" d="M84.54,18.57c5-2,16.66-.87,18.82-1"/><path class="cls-12" d="M176,8.48c4.84,2.44,26.19,6.61,31.9,4.93s24.89-4.95,27.26-4.93"/><path class="cls-12" d="M227.86,36c.82-1.62,2.67-4.1,9.69-4.1h19.09"/><path class="cls-12" d="M116.81,30.45c5.56.65,12.07.14,18.83-7.43,0,0,10.42-3.22,13.18,2.83"/><polygon class="cls-11" points="207.87 33.91 241.41 51.73 261.89 30.81 256.54 25.85 240.52 41.79 208.75 26.65 57.25 26.65 27.35 41.79 9.46 25.85 4.11 30.81 26.45 51.73 58.14 33.91 207.87 33.91"/><polyline class="cls-13" points="207.87 34.48 207.87 23.7 222.04 18.57"/><polyline class="cls-13" points="58.14 34.48 58.14 23.7 43.97 18.57"/><rect class="cls-5" x="29.78" y="204.82" width="206.46" height="1.86"/><rect class="cls-4" x="29.78" y="206.68" width="206.46" height="0.93"/><polyline class="cls-14" points="58.14 245.88 76.76 230.64 78.24 221.97 69.56 223.45 54.33 242.07"/><polygon class="cls-15" points="47.28 255.19 45.05 252.97 53.76 243.62 56.58 246.44 47.28 255.19"/><ellipse class="cls-16" cx="45.14" cy="255.07" rx="1.88" ry="2.64" transform="translate(-167.14 106.63) rotate(-45)"/><polyline class="cls-17" points="77.67 222.5 76.36 230.43 57.44 245.92 56.09 244.7"/><polygon class="cls-18" points="51.02 241.47 49.46 241.17 49.77 238.7 52.13 238.29 52.54 239.95 60.34 247.75 62 248.16 61.59 250.52 59.12 250.83 58.81 249.27 51.02 241.47"/><polygon class="cls-19" points="51.15 241.26 49.59 240.95 49.98 238.94 50.22 240.4 51.57 240.84 59.36 248.64 59.86 249.99 61.38 250.26 59.25 250.62 58.94 249.06 51.15 241.26"/><path class="cls-20" d="M156.35,229s.8-6.73,9-6.73,6.71,11.79,6.71,11.79c0,5.63-9,22.46-15.75,23h-.23c-6.78-.51-15.88-17.34-15.88-23,0,0-1.52-11.79,6.71-11.79s9,6.73,9,6.73Z"/><path class="cls-21" d="M156.35,229s.8-6.73,9-6.73,6.71,11.79,6.71,11.79c0,5.63-9,22.46-15.75,23h-.23c-6.78-.51-15.88-17.34-15.88-23,0,0-1.52-11.79,6.71-11.79s9,6.73,9,6.73Z"/><path class="cls-22" d="M156.5,229.2s.79-6.72,9-6.72c4.48,0,6.07,3.49,6.59,6.67.43,2.66-26.69,19.08-29.75,12.1a20.29,20.29,0,0,1-2-7s-1.51-11.78,6.71-11.78,9,6.72,9,6.72Z"/></svg>