<svg id="Layer_3" data-name="Layer 3" xmlns="http://www.w3.org/2000/svg" viewBox="0 0 133.37 133.19"><defs><style>.cls-1,.cls-2{fill:#c1272d;}.cls-2{font-size:60px;font-family:MVBoli, MV Boli;}</style></defs><path class="cls-1" d="M66.44,8.72A58.9,58.9,0,1,1,7.55,67.62,59,59,0,0,1,66.44,8.72m0,112.21A53.32,53.32,0,1,0,13.12,67.62a53.37,53.37,0,0,0,53.32,53.31m0-117.21a63.9,63.9,0,1,0,63.9,63.9,63.89,63.89,0,0,0-63.9-63.9Zm0,112.21a48.32,48.32,0,1,1,48.32-48.31,48.32,48.32,0,0,1-48.32,48.31Z"/><text class="cls-2" transform="translate(19.77 87.79)">OK</text></svg>