<svg id="Layer_3" data-name="Layer 3" xmlns="http://www.w3.org/2000/svg" xmlns:xlink="http://www.w3.org/1999/xlink" viewBox="0 0 1600 900"><defs><style>.cls-1,.cls-2{stroke:#000;}.cls-1,.cls-2,.cls-3{stroke-miterlimit:10;}.cls-1{fill:url(#linear-gradient);}.cls-2{fill:url(#linear-gradient-2);}.cls-3{fill:none;stroke:#c1272d;stroke-width:5px;}.cls-4{font-size:37.7px;fill:#c1272d;font-family:SegoePrint, Segoe Print;}.cls-5{fill:#cef900;}.cls-6{fill:#f1ff35;}.cls-7{fill:#e4af18;}.cls-8{fill:#fcc62d;}.cls-9{fill:#ffd949;}.cls-10{fill:#f19920;}</style><linearGradient id="linear-gradient" x1="340.36" y1="157.23" x2="788.09" y2="157.23" gradientUnits="userSpaceOnUse"><stop offset="0.02" stop-color="#c9a76a"/><stop offset="1" stop-color="#6b4d2c"/></linearGradient><linearGradient id="linear-gradient-2" x1="395.4" y1="450" x2="1259.64" y2="450" gradientUnits="userSpaceOnUse"><stop offset="0.01" stop-color="#f9cf82"/><stop offset="1" stop-color="#e4a55d"/></linearGradient></defs><path class="cls-1" d="M340.38,190.26c2.43-40.78,22-73.32,57.9-75.94.26,0,.53,0,.78,0H778.74a9.35,9.35,0,0,1,9.35,9.36v67.17a9.35,9.35,0,0,1-9.35,9.35h-429A9.36,9.36,0,0,1,340.38,190.26Z"/><path class="cls-2" d="M395.4,114.29c62.46,0,63.11,55.09,63.11,97.59,0,128.66-10,319.89,0,440.2,4.34,52,39,133.63,88.48,133.63h707.66c4.91,0,7.13-9.72,2.29-8.9-27.92-10.65-82.94-67.56-82.77-128.2,7.68-191,4.93-400,0-443.23s-10.4-91.09-74.81-91.09Z"/><rect class="cls-3" x="918.88" y="247.43" width="228.3" height="47.97" rx="12.54" transform="translate(195.91 -391.95) rotate(23.67)"/><text class="cls-4" transform="translate(931.07 241.37) rotate(23.67)">Выполнено</text><path class="cls-5" d="M660.4,460.29l12.33,36.92h40.16l-32.18,23.68,11.73,37.94-32-23.7s-32.82,23.7-32.07,23.7,12.47-37.94,12.47-37.94l-31.43-22.68,38.54-.37Z"/><path class="cls-6" d="M660.69,480l7.4,22.14h24.08l-19.3,14.19,7,22.76-19.22-14.22S641,539.11,641.46,539.11s7.48-22.76,7.48-22.76l-18.85-13.6,23.11-.22Z"/><path class="cls-7" d="M703.22,420.32c0,11.74-19.85,21.26-44.35,21.26s-44.35-9.52-44.35-21.26V408.61c0-11.74,19.86-21.26,44.35-21.26s44.35,9.52,44.35,21.26Z"/><ellipse class="cls-8" cx="658.87" cy="407.46" rx="44.35" ry="21.26"/><ellipse class="cls-9" cx="658.87" cy="407.46" rx="37.95" ry="17.42"/><path class="cls-10" d="M647,422.49s-17.77-24-17.33-23.69,18.77,8.81,18.77,8.81,7.52-15.31,7.81-14.88,10.07,15.32,10.07,15.32l18.21-10.28-16.29,24.72Z"/><path class="cls-7" d="M697.85,403.62c0,11.74-19.85,21.26-44.34,21.26s-44.35-9.52-44.35-21.26V391.91c0-11.74,19.85-21.26,44.35-21.26s44.34,9.52,44.34,21.26Z"/><ellipse class="cls-8" cx="653.51" cy="390.75" rx="44.35" ry="21.26"/><ellipse class="cls-9" cx="653.51" cy="390.75" rx="37.95" ry="17.42"/><path class="cls-10" d="M641.61,405.78s-17.76-24-17.33-23.69,18.78,8.81,18.78,8.81,7.51-15.31,7.8-14.87,10.07,15.31,10.07,15.31l18.21-10.27-16.29,24.71Z"/><path class="cls-7" d="M712.63,386.91c0,11.74-19.85,21.26-44.35,21.26s-44.34-9.52-44.34-21.26V375.2c0-11.74,19.85-21.26,44.34-21.26s44.35,9.52,44.35,21.26Z"/><ellipse class="cls-8" cx="668.28" cy="374.04" rx="44.35" ry="21.26"/><ellipse class="cls-9" cx="668.28" cy="374.04" rx="37.95" ry="17.42"/><path class="cls-10" d="M656.39,389.08s-17.77-24-17.33-23.69,18.78,8.81,18.78,8.81,7.51-15.31,7.8-14.88,10.07,15.32,10.07,15.32l18.21-10.28-16.29,24.72Z"/></svg>